<?xml version="1.0" encoding="UTF-8" standalone="no"?>
<svg
   xmlns:dc="http://purl.org/dc/elements/1.1/"
   xmlns:cc="http://creativecommons.org/ns#"
   xmlns:rdf="http://www.w3.org/1999/02/22-rdf-syntax-ns#"
   xmlns:svg="http://www.w3.org/2000/svg"
   xmlns="http://www.w3.org/2000/svg"
   width="210mm"
   height="297mm"
   viewBox="0 0 744.09448819 1052.3622047"
   id="svg3459"
   version="1.1">
  <defs
     id="defs3461" />
  <metadata
     id="metadata3464">
    <rdf:RDF>
      <cc:Work
         rdf:about="">
        <dc:format>image/svg+xml</dc:format>
        <dc:type
           rdf:resource="http://purl.org/dc/dcmitype/StillImage" />
        <dc:title></dc:title>
      </cc:Work>
    </rdf:RDF>
  </metadata>
  <g
     transform="matrix(0.14732862,0,0,0.14732862,316.79901,447.74891)"
     id="layer1">
    <g
       id="XMLID_1_"
       transform="translate(-468.47429,180.53053)">
      <g
         id="g55">
        <path
           d="m 1170.17,382.239 c 1.474,39.555 -8.897,70.856 -27.63,92.617 -18.946,21.948 -44.566,36.66 -80.423,39.233 -39.126,2.813 -68.202,-10.961 -88.113,-30.872 -20.77,-20.77 -33.981,-44.245 -36.661,-82.969 -3.993,-57.349 21.278,-99.745 59.198,-119.629 14.016,-7.37 30.176,-11.604 48.211,-12.864 57.751,-3.993 95.886,25.673 113.841,66.247 6.351,14.417 10.907,30.228 11.577,48.237 z m -99.691,63.674 c 19.777,-8.361 29.586,-36.42 27.656,-63.031 -2.117,-28.916 -19.295,-54.616 -51.453,-50.167 -0.429,0.054 -0.885,-0.053 -1.286,0 -43.655,5.789 -50.328,85.997 -16.08,109.339 10.183,6.967 28.004,9.432 41.163,3.859 z"
           id="path57"
           style="fill:#413392" />
        <path
           d="m 890.392,438.194 c 16.32,2.117 28.675,24.065 20.581,43.093 -3.483,8.2 -12.22,15.355 -19.295,19.295 -14.257,7.959 -36.794,14.042 -59.171,14.149 -36.634,0.188 -64.21,-14.229 -82.969,-34.088 -19.644,-20.769 -31.06,-49.872 -32.159,-84.898 -1.179,-37.304 10.988,-66.005 29.586,-87.471 18.732,-21.654 44.486,-36.446 81.039,-38.59 19.858,-1.152 37.17,2.868 52.097,7.718 14.793,4.824 28.702,11.255 38.591,21.224 -8.255,17.714 -17.982,33.9 -26.37,51.454 -27.603,-15.543 -62.602,-25.62 -84.255,-7.075 -12.141,10.398 -18.491,26.102 -18.652,46.951 -0.295,34.57 17.124,62.923 54.669,58.528 9.46,-1.099 15.115,-3.431 22.512,-5.788 6.082,-1.928 13.532,-5.814 23.796,-4.502 z"
           id="path59"
           style="fill:#413392" />
        <path
           d="m 691.01,429.19 c 0,11.39 2.09,25.86 0,32.802 -1.26,4.127 -12.193,10.772 -16.723,14.149 -15.73,11.685 -29.291,20.769 -44.379,32.158 -2.546,1.903 -4.797,4.984 -8.361,5.146 0,-76.081 0,-164.731 0,-246.977 0,-37.223 -2.305,-73.616 29.586,-77.18 40.922,-4.583 39.877,35.696 39.877,75.25 0,55.019 0,109.608 0,164.652 z"
           id="path61"
           style="fill:#413392" />
        <path
           d="m 552.085,190.575 c 25.78,-3.082 47.97,16.883 43.735,46.952 -3.617,25.619 -34.999,40.868 -58.528,28.299 -15.115,-8.066 -27.174,-32.534 -16.723,-54.026 5.012,-10.345 15.812,-19.322 31.516,-21.225 z"
           id="path63"
           style="fill:#413392" />
        <path
           d="m 590.675,439.481 c 0,8.227 1.394,17.928 0,22.511 -1.179,3.912 -13.372,11.711 -16.722,14.149 -15.57,11.336 -28.782,20.956 -43.708,32.158 -2.519,1.876 -4.904,4.663 -8.388,5.146 0,-38.59 0,-78.413 0,-121.559 0,-37.197 -6.271,-91.169 14.149,-107.409 12.488,-9.942 36.634,-7.048 45.665,5.145 12.193,16.481 9.004,51.695 9.004,81.683 0,23.904 0,43.682 0,68.176 z"
           id="path65"
           style="fill:#413392" />
      </g>
      <g
         id="g67" />
    </g>
  </g>
</svg>
